# xmcd
#
# Track frame offsets:
#	150
#	18687
#	32411
#	54263
#	76617
#	95495
#	113990
#	134317
#	155515
#	173879
#	193760
#	212645
#
# Disc length: 3108 seconds
#
# Revision: 0
# Processed by: cddbd v1.5PL3 Copyright (c) Steve Scherf et al.
# Submitted via: dBpowerAMP V4.0
#
DISCID=960c220c
DTITLE=love traduções - disco 04
DYEAR=1995
DGENRE=internacional
TTITLE0=immortality
TTITLE1=imagine
TTITLE2=killing my softly
TTITLE3=piano in the dark
TTITLE4=endless love
TTITLE5=it might be you
TTITLE6=take my breath away
TTITLE7=never say goodbay
TTITLE8=you`ve got a friend
TTITLE9=right here waiting
TTITLE10=youll by in my heart
TTITLE11=because you loved me
EXTD=
EXTT0=
EXTT1=
EXTT2=
EXTT3=
EXTT4=
EXTT5=
EXTT6=
EXTT7=
EXTT8=
EXTT9=
EXTT10=
EXTT11=
PLAYORDER=
